  0
SECTION
  2
HEADER
  0
ENDSEC
  0
SECTION
  2
TABLES
  0
TABLE
  2
LTYPE
 70
1
  0
LTYPE
  2
CONTINUOUS
 70
0
  3
Solid line
 72
65
 73
0
 40
0.0
  0
ENDTAB
  0
TABLE
  2
LAYER
 70
2
  0
LAYER
  2
Title
 70
0
 62
1
  6
CONTINUOUS
  0
LAYER
  2
WMC2733B_Front
 70
0
 62
1
  6
CONTINUOUS
  0
ENDTAB
  0
ENDSEC
  0
SECTION
  2
BLOCKS
  0
ENDSEC
  0
SECTION
  2
ENTITIES
  0
LINE
  8
WMC2733B_Front
 10
-13.689916
 20
18.076725
 11
-14.439915
 21
18.076725
 39
0.006944
 62
1
  0
LINE
  8
WMC2733B_Front
 10
-13.689916
 20
17.076725
 11
-13.689916
 21
18.076725
 39
0.006944
 62
1
  0
LINE
  8
WMC2733B_Front
 10
-13.689916
 20
17.076725
 11
-13.689916
 21
16.326725
 39
0.006944
 62
1
  0
LINE
  8
WMC2733B_Front
 10
-13.689916
 20
16.326725
 11
-13.689916
 21
17.076725
 39
0.006944
 62
1
  0
LINE
  8
WMC2733B_Front
 10
-13.689916
 20
6.451729
 11
-13.689916
 21
16.326725
 39
0.006944
 62
1
  0
LINE
  8
WMC2733B_Front
 10
11.310085
 20
17.076725
 11
-13.689916
 21
17.076725
 39
0.006944
 62
1
  0
LINE
  8
WMC2733B_Front
 10
-13.689916
 20
16.326725
 11
11.310085
 21
16.326725
 39
0.006944
 62
1
  0
LINE
  8
WMC2733B_Front
 10
-13.689916
 20
6.451725
 11
-13.689916
 21
5.701725
 39
0.006944
 62
1
  0
LINE
  8
WMC2733B_Front
 10
-13.689916
 20
5.701725
 11
-13.689916
 21
6.451729
 39
0.006944
 62
1
  0
LINE
  8
WMC2733B_Front
 10
-14.439915
 20
18.076725
 11
-14.439915
 21
-14.923273
 39
0.006944
 62
1
  0
LINE
  8
WMC2733B_Front
 10
11.310085
 20
6.451725
 11
-13.689916
 21
6.451725
 39
0.006944
 62
1
  0
LINE
  8
WMC2733B_Front
 10
-13.689916
 20
5.701725
 11
11.310085
 21
5.701725
 39
0.006944
 62
1
  0
LINE
  8
WMC2733B_Front
 10
12.060085
 20
18.076725
 11
11.310085
 21
18.076725
 39
0.006944
 62
1
  0
LINE
  8
WMC2733B_Front
 10
11.310085
 20
18.076725
 11
11.310085
 21
17.076725
 39
0.006944
 62
1
  0
LINE
  8
WMC2733B_Front
 10
11.310085
 20
16.326725
 11
11.310085
 21
17.076725
 39
0.006944
 62
1
  0
LINE
  8
WMC2733B_Front
 10
11.310085
 20
17.076725
 11
11.310085
 21
16.326725
 39
0.006944
 62
1
  0
LINE
  8
WMC2733B_Front
 10
11.310085
 20
16.326725
 11
11.310081
 21
6.451729
 39
0.006944
 62
1
  0
LINE
  8
WMC2733B_Front
 10
11.310085
 20
5.701725
 11
11.310085
 21
6.451725
 39
0.006944
 62
1
  0
LINE
  8
WMC2733B_Front
 10
12.060085
 20
-14.923273
 11
12.060085
 21
18.076725
 39
0.006944
 62
1
  0
LINE
  8
WMC2733B_Front
 10
-13.689916
 20
-13.423275
 11
-13.689916
 21
5.701725
 39
0.006944
 62
1
  0
LINE
  8
WMC2733B_Front
 10
-13.689916
 20
-13.423275
 11
-13.689916
 21
-14.173275
 39
0.006944
 62
1
  0
LINE
  8
WMC2733B_Front
 10
-13.689916
 20
-14.173275
 11
-13.689916
 21
-13.423275
 39
0.006944
 62
1
  0
LINE
  8
WMC2733B_Front
 10
-13.689916
 20
-14.923273
 11
-13.689916
 21
-14.173275
 39
0.006944
 62
1
  0
LINE
  8
WMC2733B_Front
 10
-14.439915
 20
-14.923273
 11
-13.689916
 21
-14.923273
 39
0.006944
 62
1
  0
LINE
  8
WMC2733B_Front
 10
11.310085
 20
-13.423275
 11
-13.689916
 21
-13.423275
 39
0.006944
 62
1
  0
LINE
  8
WMC2733B_Front
 10
-13.689916
 20
-14.173275
 11
11.310085
 21
-14.173275
 39
0.006944
 62
1
  0
LINE
  8
WMC2733B_Front
 10
11.310085
 20
5.701725
 11
11.310085
 21
-13.423275
 39
0.006944
 62
1
  0
LINE
  8
WMC2733B_Front
 10
11.310085
 20
-14.173275
 11
11.310085
 21
-13.423275
 39
0.006944
 62
1
  0
LINE
  8
WMC2733B_Front
 10
11.310085
 20
-13.423275
 11
11.310085
 21
-14.173275
 39
0.006944
 62
1
  0
LINE
  8
WMC2733B_Front
 10
11.310085
 20
-14.923273
 11
12.060085
 21
-14.923273
 39
0.006944
 62
1
  0
LINE
  8
WMC2733B_Front
 10
11.310085
 20
-14.173275
 11
11.310085
 21
-14.923273
 39
0.006944
 62
1
  0
LINE
  8
WMC2733B_Front
 10
13.456137
 20
16.326725
 11
11.560085
 21
16.326725
 39
0.006944
 62
2
  0
LINE
  8
WMC2733B_Front
 10
13.456137
 20
6.451725
 11
11.560085
 21
6.451725
 39
0.006944
 62
2
  0
LINE
  8
WMC2733B_Front
 10
13.456137
 20
16.326725
 11
13.456137
 21
11.684136
 39
0.006944
 62
2
  0
LINE
  8
WMC2733B_Front
 10
13.456137
 20
11.094314
 11
13.456137
 21
6.451725
 39
0.006944
 62
2
  0
POLYLINE
  8
WMC2733B_Front
 66
     1
 10
0.0
 20
0.0
 39
0.006944
 62
2
 70
     1
  0
VERTEX
  8
WMC2733B_Front
 10
12.922803
 20
16.793392
 62
2
  0
VERTEX
  8
WMC2733B_Front
 10
12.989470
 20
16.860058
 62
2
  0
VERTEX
  8
WMC2733B_Front
 10
13.989470
 20
15.860058
 62
2
  0
VERTEX
  8
WMC2733B_Front
 10
13.922803
 20
15.793392
 62
2
  0
SEQEND
  8
WMC2733B_Front
  0
POLYLINE
  8
WMC2733B_Front
 66
     1
 10
0.0
 20
0.0
 39
0.006944
 62
2
 70
     1
  0
VERTEX
  8
WMC2733B_Front
 10
12.922803
 20
6.918392
 62
2
  0
VERTEX
  8
WMC2733B_Front
 10
12.989470
 20
6.985058
 62
2
  0
VERTEX
  8
WMC2733B_Front
 10
13.989470
 20
5.985058
 62
2
  0
VERTEX
  8
WMC2733B_Front
 10
13.922803
 20
5.918392
 62
2
  0
SEQEND
  8
WMC2733B_Front
  0
TEXT
  8
WMC2733B_Front
 10
13.456137
 20
11.634136
 11
13.456137
 21
11.634136
 40
1.000000
 41
0.45
 50
-90.000000
 72
0
 73
1
 62
2
  1
A
  0
LINE
  8
WMC2733B_Front
 10
-16.666680
 20
5.701725
 11
-13.939915
 21
5.701725
 39
0.006944
 62
2
  0
LINE
  8
WMC2733B_Front
 10
-16.666680
 20
-13.423275
 11
-13.939915
 21
-13.423275
 39
0.006944
 62
2
  0
LINE
  8
WMC2733B_Front
 10
-16.666680
 20
5.701725
 11
-16.666680
 21
-3.593076
 39
0.006944
 62
2
  0
LINE
  8
WMC2733B_Front
 10
-16.666680
 20
-4.128474
 11
-16.666680
 21
-13.423275
 39
0.006944
 62
2
  0
POLYLINE
  8
WMC2733B_Front
 66
     1
 10
0.0
 20
0.0
 39
0.006944
 62
2
 70
     1
  0
VERTEX
  8
WMC2733B_Front
 10
-17.200013
 20
6.168392
 62
2
  0
VERTEX
  8
WMC2733B_Front
 10
-17.133347
 20
6.235058
 62
2
  0
VERTEX
  8
WMC2733B_Front
 10
-16.133347
 20
5.235058
 62
2
  0
VERTEX
  8
WMC2733B_Front
 10
-16.200013
 20
5.168392
 62
2
  0
SEQEND
  8
WMC2733B_Front
  0
POLYLINE
  8
WMC2733B_Front
 66
     1
 10
0.0
 20
0.0
 39
0.006944
 62
2
 70
     1
  0
VERTEX
  8
WMC2733B_Front
 10
-17.200013
 20
-12.956608
 62
2
  0
VERTEX
  8
WMC2733B_Front
 10
-17.133347
 20
-12.889942
 62
2
  0
VERTEX
  8
WMC2733B_Front
 10
-16.133347
 20
-13.889942
 62
2
  0
VERTEX
  8
WMC2733B_Front
 10
-16.200013
 20
-13.956608
 62
2
  0
SEQEND
  8
WMC2733B_Front
  0
TEXT
  8
WMC2733B_Front
 10
-18.027297
 20
-3.643076
 11
-18.027297
 21
-3.643076
 40
1.000000
 41
0.45
 50
-90.000000
 72
0
 73
1
 62
2
  1
C
  0
LINE
  8
WMC2733B_Front
 10
16.471325
 20
6.451725
 11
11.560085
 21
6.451725
 39
0.006944
 62
2
  0
LINE
  8
WMC2733B_Front
 10
16.471325
 20
5.701725
 11
11.560085
 21
5.701725
 39
0.006944
 62
2
  0
LINE
  8
WMC2733B_Front
 10
16.471325
 20
6.451725
 11
16.471325
 21
5.701725
 39
0.006944
 62
2
  0
POLYLINE
  8
WMC2733B_Front
 66
     1
 10
0.0
 20
0.0
 39
0.006944
 62
2
 70
     1
  0
VERTEX
  8
WMC2733B_Front
 10
15.937992
 20
6.918392
 62
2
  0
VERTEX
  8
WMC2733B_Front
 10
16.004659
 20
6.985058
 62
2
  0
VERTEX
  8
WMC2733B_Front
 10
17.004659
 20
5.985058
 62
2
  0
VERTEX
  8
WMC2733B_Front
 10
16.937992
 20
5.918392
 62
2
  0
SEQEND
  8
WMC2733B_Front
  0
TEXT
  8
WMC2733B_Front
 10
16.971325
 20
6.294424
 11
16.971325
 21
6.294424
 40
1.000000
 41
0.45
 50
-90.000000
 72
0
 73
1
 62
2
  1
B
  0
LINE
  8
WMC2733B_Front
 10
16.471325
 20
-13.423275
 11
11.560085
 21
-13.423275
 39
0.006944
 62
2
  0
LINE
  8
WMC2733B_Front
 10
16.471325
 20
-14.173275
 11
11.560085
 21
-14.173275
 39
0.006944
 62
2
  0
LINE
  8
WMC2733B_Front
 10
16.471325
 20
-13.423275
 11
16.471325
 21
-14.173275
 39
0.006944
 62
2
  0
POLYLINE
  8
WMC2733B_Front
 66
     1
 10
0.0
 20
0.0
 39
0.006944
 62
2
 70
     1
  0
VERTEX
  8
WMC2733B_Front
 10
15.937992
 20
-12.956608
 62
2
  0
VERTEX
  8
WMC2733B_Front
 10
16.004659
 20
-12.889942
 62
2
  0
VERTEX
  8
WMC2733B_Front
 10
17.004659
 20
-13.889942
 62
2
  0
VERTEX
  8
WMC2733B_Front
 10
16.937992
 20
-13.956608
 62
2
  0
SEQEND
  8
WMC2733B_Front
  0
TEXT
  8
WMC2733B_Front
 10
16.971325
 20
-13.553364
 11
16.971325
 21
-13.553364
 40
1.000000
 41
0.45
 50
-90.000000
 72
0
 73
1
 62
2
  1
D
  0
ENDSEC
  0
EOF
